<svg width="24" height="26" viewBox="0 0 24 26" fill="none" xmlns="http://www.w3.org/2000/svg">
<path opacity="0.4" fill-rule="evenodd" clip-rule="evenodd" d="M8.18376 4.35193H15.8621V2.56416H8.18376V4.35193ZM6.43707 2.63757V2.64647C5.83768 2.70098 5.24473 2.82002 4.66786 2.99913V2.99246C4.65071 2.99967 4.63457 3.00522 4.61907 3.01055C4.59873 3.01754 4.57951 3.02415 4.56064 3.03362C4.51453 3.04474 4.4695 3.06143 4.42661 3.08257C4.30008 3.12373 4.17356 3.17268 4.05454 3.22274C4.02291 3.23498 3.99128 3.24916 3.95965 3.26335C3.92801 3.27753 3.89638 3.29172 3.86475 3.30395C3.82133 3.32454 3.77602 3.34706 3.73072 3.36959C3.68542 3.39212 3.64012 3.41465 3.59669 3.43523L3.38224 3.55871C3.34259 3.57894 3.30589 3.60265 3.26844 3.62685C3.24614 3.64126 3.22357 3.65585 3.19996 3.66996C2.87721 3.878 2.57806 4.12163 2.30785 4.39865L2.29177 4.41533C2.25628 4.4567 2.22094 4.49684 2.18608 4.53644C2.1272 4.60332 2.06968 4.66865 2.01513 4.73573L1.99905 4.7513C1.12195 5.96169 0.68233 7.45354 0.75846 8.96542V9.4449H2.49013V8.96097C2.49013 6.85391 3.16136 5.54229 4.655 4.87034C5.22543 4.62893 5.82803 4.47986 6.44136 4.42534H6.45744V2.64536L6.43707 2.63757ZM21.9975 4.72906L22.005 4.74463C22.881 5.95613 23.3185 7.44909 23.2413 8.96097V9.4449H21.5107V8.94873C21.5471 8.05651 21.3681 7.16875 20.9885 6.36664C20.6239 5.68024 20.0406 5.14735 19.3362 4.8581C18.7754 4.61669 18.1814 4.46651 17.5755 4.41311V2.64202C18.1749 2.69765 18.7679 2.81557 19.3458 2.99468V2.98578C19.3783 3.00052 19.4031 3.00928 19.4456 3.02431L19.453 3.02695C19.4728 3.03392 19.4912 3.0409 19.5094 3.0478C19.5347 3.0574 19.5596 3.06683 19.5871 3.07589C19.7056 3.11479 19.8165 3.16063 19.9306 3.2078L19.9506 3.21607C20.0032 3.23456 20.0528 3.25748 20.0975 3.27814C20.1119 3.28484 20.1259 3.29129 20.1393 3.29728C20.2336 3.33844 20.3301 3.38739 20.4073 3.42855C20.4588 3.45527 20.509 3.48386 20.556 3.51068C20.5814 3.52518 20.606 3.53916 20.6293 3.55204C20.6677 3.57326 20.7011 3.59596 20.7332 3.61778C20.7567 3.63373 20.7795 3.6492 20.803 3.66329C21.1268 3.87244 21.4292 4.11719 21.7026 4.39197L21.7123 4.40866C21.813 4.5099 21.9085 4.61669 21.9975 4.72906Z" fill="#5669FF"/>
<path d="M17.625 1.39618V5.33559C17.625 5.83195 17.2223 6.23398 16.725 6.23398C16.2278 6.23398 15.825 5.83195 15.825 5.33559V1.40516C15.8205 0.908803 16.221 0.503407 16.7183 0.500038C17.2155 0.496669 17.6217 0.895328 17.625 1.39168V1.39618Z" fill="#5669FF"/>
<path d="M8.175 1.41045V5.34013C8.175 5.83864 7.77176 6.24284 7.27444 6.24284C6.77712 6.24284 6.375 5.83864 6.375 5.34013V1.41045C6.375 0.911946 6.77712 0.508873 7.27444 0.508873C7.77176 0.508873 8.175 0.911946 8.175 1.41045Z" fill="#5669FF"/>
<path fill-rule="evenodd" clip-rule="evenodd" d="M0.75 19.1377V9.4449H23.25V19.1377C23.25 23.3645 20.8895 25.5 16.2114 25.5H7.7779C3.11052 25.5 0.75 23.3645 0.75 19.1377ZM5.82513 14.8335C5.82513 15.4199 6.2865 15.8957 6.85517 15.8957C7.43457 15.8957 7.89594 15.4088 7.88521 14.8224C7.88521 14.236 7.42384 13.7602 6.8659 13.7602H6.85517C6.2865 13.7602 5.82513 14.247 5.82513 14.8335ZM10.9646 14.8335C10.9646 15.4199 11.4367 15.8957 12.0054 15.8957C12.574 15.8957 13.0354 15.4199 13.0354 14.8224C13.0354 14.247 12.574 13.7712 12.0054 13.7602H11.9946C11.426 13.7712 10.9646 14.247 10.9646 14.8335ZM17.1449 15.8957C16.5762 15.8957 16.1148 15.4199 16.1148 14.8335C16.1148 14.247 16.5655 13.7713 17.1449 13.7713C17.7135 13.7713 18.1749 14.247 18.1749 14.8335C18.1749 15.4199 17.7135 15.8957 17.1449 15.8957ZM17.1449 20.4323C16.5762 20.4323 16.1148 19.9565 16.1041 19.3701C16.1041 18.7836 16.5655 18.3078 17.1341 18.3078H17.1449C17.7135 18.3078 18.1749 18.7836 18.1749 19.3701C18.1749 19.9565 17.7135 20.4323 17.1449 20.4323ZM12.0054 20.4323C11.4367 20.4323 10.9646 19.9565 10.9646 19.3701C10.9646 18.7836 11.426 18.3078 11.9946 18.2968H12.0054C12.574 18.3078 13.0247 18.7836 13.0354 19.359C13.0354 19.9565 12.574 20.4323 12.0054 20.4323ZM6.85515 20.4323C6.28648 20.4323 5.82511 19.9565 5.82511 19.3701C5.81438 18.7836 6.27575 18.2968 6.85515 18.2968C7.42382 18.2968 7.88519 18.7726 7.88519 19.359C7.88519 19.9454 7.42382 20.4323 6.85515 20.4323Z" fill="#5669FF"/>
</svg>
